<svg xmlns="http://www.w3.org/2000/svg" width="512" height="512" viewBox="0 0 512 512">
  <defs>
    <linearGradient id="bg" x1="0" y1="0" x2="0" y2="1">
      <stop offset="0%" stop-color="#EBE4FF" />
      <stop offset="100%" stop-color="#FFE7DC" />
    </linearGradient>
    <linearGradient id="cloud" x1="0" y1="0" x2="0" y2="1">
      <stop offset="0%" stop-color="#FFFFFF" />
      <stop offset="100%" stop-color="#F3EEFB" />
    </linearGradient>
    <filter id="cloudShadow" x="-20%" y="-20%" width="140%" height="140%">
      <feDropShadow dx="0" dy="14" stdDeviation="14" flood-color="#7868BC" flood-opacity="0.22" />
    </filter>
  </defs>

  <rect width="512" height="512" rx="96" fill="url(#bg)" />

  <g transform="translate(80 130) scale(1.4)" filter="url(#cloudShadow)">
    <path
      d="M50 132 C26 132 12 116 22 100 C6 96 10 72 30 70 C22 50 44 36 60 44 C66 24 96 18 106 36 C118 18 150 24 154 46 C180 38 204 56 198 78 C218 80 222 102 206 110 C224 118 214 142 188 134 L50 132 Z"
      fill="url(#cloud)"
    />
    <ellipse cx="84" cy="92" rx="11" ry="6" fill="#FFB1C1" opacity="0.7" />
    <ellipse cx="160" cy="92" rx="11" ry="6" fill="#FFB1C1" opacity="0.7" />
    <circle cx="100" cy="80" r="4.6" fill="#2A2440" />
    <circle cx="146" cy="80" r="4.6" fill="#2A2440" />
    <path d="M112 100 Q123 110 134 100" stroke="#2A2440" stroke-width="3.6" stroke-linecap="round" fill="none" />
  </g>

  <circle cx="430" cy="100" r="14" fill="#FCDB81" />
  <circle cx="80" cy="430" r="10" fill="#A5CFF7" />
</svg>
